<?xml version="1.0" standalone="no"?><!DOCTYPE svg PUBLIC "-//W3C//DTD SVG 1.1//EN" "http://www.w3.org/Graphics/SVG/1.1/DTD/svg11.dtd"><svg t="1714446815763" class="icon" viewBox="0 0 1024 1024" version="1.1" xmlns="http://www.w3.org/2000/svg" p-id="4993" xmlns:xlink="http://www.w3.org/1999/xlink" width="200" height="200"><path d="M512 512m-512 0a512 512 0 1 0 1024 0 512 512 0 1 0-1024 0Z" fill="#0F2522" p-id="4994"></path><path d="M335.38048 625.33632l195.50208-0.67584a14.39744 14.39744 0 0 0 19.43552-13.5168c0-17.32608-0.43008-34.36544-1.24928-50.9952l118.45632-0.34816 12.43136-1.20832a14.4384 14.4384 0 0 0 17.8176-14.00832c0-41.92256-10.3424-81.75616-29.16352-112.14848-18.92352-30.57664-44.29824-48.10752-69.61152-48.10752-20.64384 0-39.81312 9.50272-55.3984 27.48416-4.32128 5.05856-8.25344 10.4448-11.71456 16.11776a448.67584 448.67584 0 0 0-8.82688-32.70656c-25.31328-80.83456-59.8016-97.792-84.25472-97.792-18.78016 0-36.37248 9.66656-52.30592 28.672-13.7216 16.40448-25.88672 39.48544-36.20864 68.608-20.54144 58.01984-31.8464 134.90176-31.8464 216.43264 0 6.0416 3.74784 11.22304 9.0112 13.37344l0.02048 0.86016h3.01056c1.61792 0.26624 3.2768 0.24576 4.9152-0.04096" fill="#79AC99" p-id="4995"></path><path d="M714.81344 640.08192a79.95392 79.95392 0 0 0-14.60224-6.20544c-10.48576-3.52256-24.22784-6.98368-38.76864-10.67008-7.70048-1.90464-15.38048-3.8912-23.06048-5.9392l4.62848-0.14336c19.968-0.45056 38.27712 0 38.46144 0a14.4384 14.4384 0 0 0 0.77824-28.83584 879.47264 879.47264 0 0 0-46.4896 0.16384c-13.84448 0.47104-25.14944 1.31072-33.52576 2.53952-5.67296 0.8192-10.1376 1.8432-13.66016 3.072-7.65952 2.70336-12.36992 7.20896-13.98784 13.4144a17.22368 17.22368 0 0 0 4.34176 16.1792c2.10944 2.31424 4.83328 4.3008 8.56064 6.28736 15.6672 8.2944 41.69728 14.86848 66.88768 21.23776 7.168 1.82272 14.09024 3.56352 20.41856 5.26336-82.41152 17.77664-194.88768 21.21728-253.8496 18.96448a14.4384 14.4384 0 0 0-1.10592 28.83584c12.1856 0.45056 24.3712 0.65536 36.5568 0.63488 29.42976 0 62.13632-1.06496 92.89728-3.15392 40.59136-2.70336 99.328-8.58112 148.6848-21.05344 7.3728-1.8432 12.6976-3.74784 16.71168-5.89824 10.24-5.46816 11.75552-13.14816 11.75552-17.24416 0-4.87424-2.02752-11.8784-11.63264-17.44896" fill="#79AC99" p-id="4996"></path></svg>